<?xml version="1.0" encoding="UTF-8"?>
<svg viewBox="0 0 286.44687 278.86679" xmlns="http://www.w3.org/2000/svg">
 <g transform="translate(-268.22 -1287.1)">
  <path d="m442.26 1288.1-23.605 27.515-0.07334-0.0122c-17.863-1.1118-35.17 2.2794-50.666 9.3132l-30.968-29.046 8.9253 42.498c-12.614 9.9304-23.023 22.727-30.182 37.57l-46.47 0.0642 37.613 27.025c-0.11702 0.636-0.28314 1.2542-0.3892 1.8946-2.372 14.32-1.7471 28.503 1.3611 41.816l-38.131 27.41 49.719 1.7846c6.6924 11.572 15.503 21.916 26.021 30.305l-17.811 51.013 46.532-34.727c6.4932 2.4536 13.305 4.3136 20.412 5.4912 5.881 0.9742 11.763 1.4682 17.537 1.4736l21.509 35.48 10.978-40.572c13.037-4.174 25.071-10.799 35.54-19.428l42.223 14.172-21.411-37.02c8.1414-12.109 13.93-26.125 16.578-41.406l36.166-13.299-35.009-14.613c-1.5138-16.765-6.9743-32.681-15.565-46.58l19.952-31.691-35.796 11.812c-12.159-12.04-27.261-21.291-44.445-26.425l-0.54496-31.817z" fill="#8a9da5" stroke="#000" stroke-linejoin="round" stroke-width="2"/>
  <path d="m511.76 1430.4c-28.183 59.469-98.339 79.7-160.79 55.742-7.487-2.8722-14.518-6.3552-21.112-10.408 10.674 19.214 27.891 34.939 50.002 43.421 49.987 19.175 106.12-5.8326 125.29-55.821 5.2249-13.621 7.5598-19.271 6.6122-32.933z" fill="#445057"/>
  <path d="m368.32 1330c-37.771 9.247-58.27 58.177-41.719 89.887-0.59512-42.05 33.115-81.715 69.687-92.187-9.3485-1.2144-18.956-0.4596-27.968 2.3004z" fill="#e4eaed" opacity=".30943"/>
  <path d="m362.38 1390.9c1.5666 0.5546 3.041 1.4964 4.23 2.8182 3.8054 4.23 3.4607 10.751-0.76908 14.557-1.7628 1.586-3.9412 2.4318-6.1378 2.595 3.4363 1.1986 7.431 0.555 10.326-2.0494 4.2297-3.8054 4.5744-10.327 0.76908-14.557-2.2102-2.4568-5.3567-3.5808-8.418-3.364z"/>
  <g transform="matrix(1.7683 -1.5909 1.5908 1.7683 -2577.4 -478.98)">
   <path d="m379.63 1423.1c0.33367 0.6139 0.52963 1.3229 0.52963 2.0703-1e-5 2.3921-1.9413 4.3333-4.3333 4.3333-0.99701 1e-4 -1.9157-0.3481-2.6482-0.9147 0.73699 1.3409 2.1665 2.263 3.8037 2.2629 2.392 0 4.3333-1.9412 4.3333-4.3333 0-1.3894-0.66745-2.6254-1.6852-3.4185z"/>
   <path d="m374.24 1428.8c-0.2793-0.5139-0.44333-1.1074-0.44333-1.733 1e-5 -2.0023 1.625-3.6272 3.6273-3.6272 0.83456-1e-4 1.6035 0.2914 2.2167 0.7656-0.6169-1.1224-1.8135-1.8942-3.1839-1.8941-2.0023 0-3.6273 1.6249-3.6273 3.6272 0 1.163 0.5587 2.1976 1.4106 2.8615z" fill="#e4eaed"/>
  </g>
  <path d="m361.89 1409.3c-1.3114-0.4646-2.5456-1.2532-3.5408-2.3596-3.1853-3.5408-2.8967-8.9992 0.64384-12.185 1.4756-1.3278 3.2991-2.0358 5.1376-2.1726-2.8764-1.0032-6.2201-0.4646-8.6432 1.7158-3.5406 3.1854-3.8291 8.644-0.64388 12.185 1.8501 2.0566 4.4839 2.9972 7.0465 2.8162z" fill="#e4eaed"/>
  <path d="m309.12 1421.1-0.03273 2.1579 210.25 4.0382-0.04156-2.1564-30.406-2.1008-29.46-0.397-8.7221-0.3819-71.007-1.6766-70.577 0.5166z" fill="#e4eaed"/>
  <g transform="matrix(1.7683 -1.5909 1.5908 1.7683 -2533.4 -478.98)">
   <path d="m379.63 1423.1c0.33367 0.6139 0.52963 1.3229 0.52963 2.0703-1e-5 2.3921-1.9413 4.3333-4.3333 4.3333-0.99701 1e-4 -1.9157-0.3481-2.6482-0.9147 0.73699 1.3409 2.1665 2.263 3.8037 2.2629 2.392 0 4.3333-1.9412 4.3333-4.3333 0-1.3894-0.66745-2.6254-1.6852-3.4185z"/>
   <path d="m374.24 1428.8c-0.2793-0.5139-0.44333-1.1074-0.44333-1.733 1e-5 -2.0023 1.625-3.6272 3.6273-3.6272 0.83456-1e-4 1.6035 0.2914 2.2167 0.7656-0.6169-1.1224-1.8135-1.8942-3.1839-1.8941-2.0023 0-3.6273 1.6249-3.6273 3.6272 0 1.163 0.5587 2.1976 1.4106 2.8615z" fill="#e4eaed"/>
  </g>
  <g transform="matrix(1.7911 -.95198 1.1163 2.1004 -1944.1 -1193.8)">
   <path d="m379.63 1423.1c0.33367 0.6139 0.52963 1.3229 0.52963 2.0703-1e-5 2.3921-1.9413 4.3333-4.3333 4.3333-0.99701 1e-4 -1.9157-0.3481-2.6482-0.9147 0.73699 1.3409 2.1665 2.263 3.8037 2.2629 2.392 0 4.3333-1.9412 4.3333-4.3333 0-1.3894-0.66745-2.6254-1.6852-3.4185z"/>
   <path d="m374.24 1428.8c-0.2793-0.5139-0.44333-1.1074-0.44333-1.733 1e-5 -2.0023 1.625-3.6272 3.6273-3.6272 0.83456-1e-4 1.6035 0.2914 2.2167 0.7656-0.6169-1.1224-1.8135-1.8942-3.1839-1.8941-2.0023 0-3.6273 1.6249-3.6273 3.6272 0 1.163 0.5587 2.1976 1.4106 2.8615z" fill="#e4eaed"/>
  </g>
  <g transform="matrix(1.7911 -.95198 1.1163 2.1004 -1943.8 -1231.6)">
   <path d="m379.63 1423.1c0.33367 0.6139 0.52963 1.3229 0.52963 2.0703-1e-5 2.3921-1.9413 4.3333-4.3333 4.3333-0.99701 1e-4 -1.9157-0.3481-2.6482-0.9147 0.73699 1.3409 2.1665 2.263 3.8037 2.2629 2.392 0 4.3333-1.9412 4.3333-4.3333 0-1.3894-0.66745-2.6254-1.6852-3.4185z"/>
   <path d="m374.24 1428.8c-0.2793-0.5139-0.44333-1.1074-0.44333-1.733 1e-5 -2.0023 1.625-3.6272 3.6273-3.6272 0.83456-1e-4 1.6035 0.2914 2.2167 0.7656-0.6169-1.1224-1.8135-1.8942-3.1839-1.8941-2.0023 0-3.6273 1.6249-3.6273 3.6272 0 1.163 0.5587 2.1976 1.4106 2.8615z" fill="#e4eaed"/>
  </g>
  <g transform="matrix(1.7683 -1.5909 1.5908 1.7683 -2527.3 -524.36)">
   <path d="m379.63 1423.1c0.33367 0.6139 0.52963 1.3229 0.52963 2.0703-1e-5 2.3921-1.9413 4.3333-4.3333 4.3333-0.99701 1e-4 -1.9157-0.3481-2.6482-0.9147 0.73699 1.3409 2.1665 2.263 3.8037 2.2629 2.392 0 4.3333-1.9412 4.3333-4.3333 0-1.3894-0.66745-2.6254-1.6852-3.4185z"/>
   <path d="m374.24 1428.8c-0.2793-0.5139-0.44333-1.1074-0.44333-1.733 1e-5 -2.0023 1.625-3.6272 3.6273-3.6272 0.83456-1e-4 1.6035 0.2914 2.2167 0.7656-0.6169-1.1224-1.8135-1.8942-3.1839-1.8941-2.0023 0-3.6273 1.6249-3.6273 3.6272 0 1.163 0.5587 2.1976 1.4106 2.8615z" fill="#e4eaed"/>
  </g>
  <g transform="matrix(1.6778 -.87254 1.1431 2.0785 -1817.7 -1190.2)">
   <path d="m379.63 1423.1c0.33367 0.6139 0.52963 1.3229 0.52963 2.0703-1e-5 2.3921-1.9413 4.3333-4.3333 4.3333-0.99701 1e-4 -1.9157-0.3481-2.6482-0.9147 0.73699 1.3409 2.1665 2.263 3.8037 2.2629 2.392 0 4.3333-1.9412 4.3333-4.3333 0-1.3894-0.66745-2.6254-1.6852-3.4185z"/>
   <path d="m374.24 1428.8c-0.2793-0.5139-0.44333-1.1074-0.44333-1.733 1e-5 -2.0023 1.625-3.6272 3.6273-3.6272 0.83456-1e-4 1.6035 0.2914 2.2167 0.7656-0.6169-1.1224-1.8135-1.8942-3.1839-1.8941-2.0023 0-3.6273 1.6249-3.6273 3.6272 0 1.163 0.5587 2.1976 1.4106 2.8615z" fill="#e4eaed"/>
  </g>
  <g transform="matrix(1.6778 -.87254 1.1431 2.0785 -1817.7 -1190.2)">
   <path d="m379.63 1423.1c0.33367 0.6139 0.52963 1.3229 0.52963 2.0703-1e-5 2.3921-1.9413 4.3333-4.3333 4.3333-0.99701 1e-4 -1.9157-0.3481-2.6482-0.9147 0.73699 1.3409 2.1665 2.263 3.8037 2.2629 2.392 0 4.3333-1.9412 4.3333-4.3333 0-1.3894-0.66745-2.6254-1.6852-3.4185z"/>
   <path d="m374.24 1428.8c-0.2793-0.5139-0.44333-1.1074-0.44333-1.733 1e-5 -2.0023 1.625-3.6272 3.6273-3.6272 0.83456-1e-4 1.6035 0.2914 2.2167 0.7656-0.6169-1.1224-1.8135-1.8942-3.1839-1.8941-2.0023 0-3.6273 1.6249-3.6273 3.6272 0 1.163 0.5587 2.1976 1.4106 2.8615z" fill="#e4eaed"/>
  </g>
  <g transform="matrix(1.6778 -.87254 1.1431 2.0785 -1811.6 -1231.9)">
   <path d="m379.63 1423.1c0.33367 0.6139 0.52963 1.3229 0.52963 2.0703-1e-5 2.3921-1.9413 4.3333-4.3333 4.3333-0.99701 1e-4 -1.9157-0.3481-2.6482-0.9147 0.73699 1.3409 2.1665 2.263 3.8037 2.2629 2.392 0 4.3333-1.9412 4.3333-4.3333 0-1.3894-0.66745-2.6254-1.6852-3.4185z"/>
   <path d="m374.24 1428.8c-0.2793-0.5139-0.44333-1.1074-0.44333-1.733 1e-5 -2.0023 1.625-3.6272 3.6273-3.6272 0.83456-1e-4 1.6035 0.2914 2.2167 0.7656-0.6169-1.1224-1.8135-1.8942-3.1839-1.8941-2.0023 0-3.6273 1.6249-3.6273 3.6272 0 1.163 0.5587 2.1976 1.4106 2.8615z" fill="#e4eaed"/>
  </g>
  <g transform="matrix(1.523 -.13857 .51676 2.2918 -826.01 -1770.3)">
   <path d="m379.63 1423.1c0.33367 0.6139 0.52963 1.3229 0.52963 2.0703-1e-5 2.3921-1.9413 4.3333-4.3333 4.3333-0.99701 1e-4 -1.9157-0.3481-2.6482-0.9147 0.73699 1.3409 2.1665 2.263 3.8037 2.2629 2.392 0 4.3333-1.9412 4.3333-4.3333 0-1.3894-0.66745-2.6254-1.6852-3.4185z"/>
   <path d="m374.24 1428.8c-0.2793-0.5139-0.44333-1.1074-0.44333-1.733 1e-5 -2.0023 1.625-3.6272 3.6273-3.6272 0.83456-1e-4 1.6035 0.2914 2.2167 0.7656-0.6169-1.1224-1.8135-1.8942-3.1839-1.8941-2.0023 0-3.6273 1.6249-3.6273 3.6272 0 1.163 0.5587 2.1976 1.4106 2.8615z" fill="#e4eaed"/>
  </g>
  <g transform="matrix(1.523 -.13857 .51676 2.2918 -821.81 -1810.2)">
   <path d="m379.63 1423.1c0.33367 0.6139 0.52963 1.3229 0.52963 2.0703-1e-5 2.3921-1.9413 4.3333-4.3333 4.3333-0.99701 1e-4 -1.9157-0.3481-2.6482-0.9147 0.73699 1.3409 2.1665 2.263 3.8037 2.2629 2.392 0 4.3333-1.9412 4.3333-4.3333 0-1.3894-0.66745-2.6254-1.6852-3.4185z"/>
   <path d="m374.24 1428.8c-0.2793-0.5139-0.44333-1.1074-0.44333-1.733 1e-5 -2.0023 1.625-3.6272 3.6273-3.6272 0.83456-1e-4 1.6035 0.2914 2.2167 0.7656-0.6169-1.1224-1.8135-1.8942-3.1839-1.8941-2.0023 0-3.6273 1.6249-3.6273 3.6272 0 1.163 0.5587 2.1976 1.4106 2.8615z" fill="#e4eaed"/>
  </g>
  <path transform="translate(339.84 1356.8)" d="m13.5 145.93c-6 8.5-21.5 49.5-19.5 46.5s45.5-34 42.5-36-21.5-10-23-10.5z" fill="#445057"/>
  <path transform="translate(339.84 1356.8)" d="m73.5 160.43c8 22 18 36 18 36l10-38-25.5 2" fill="#445057"/>
  <path transform="translate(339.84 1356.8)" d="m134.5 141.93s44 18 43 16-23-36-23-36l-20 20z" fill="#445057"/>
  <path transform="translate(339.84 1356.8)" d="m78.135-38.758s3.8891-1.0607 7.4246-1.7678 15.556-24.749 15.556-24.749l-22.981 26.516z" fill="#e4eaed"/>
  <path transform="translate(339.84 1356.8)" d="m145.66-8.3519s1.4142 1.4142 3.5355 1.4142 31.82-12.374 30.406-12.374-33.588 10.96-33.941 10.96z" fill="#e4eaed"/>
  <path transform="translate(339.84 1356.8)" d="m-64.347 20.993c2.8284 0 42.073 0.35355 42.073 0.35355l-2.1213 3.5355-39.952-3.8891z" fill="#e4eaed"/>
  <path d="m309.12 1423.2-0.03273 2.1579 210.25 4.0382-0.04156-2.1564-30.406-2.1008-29.46-0.397-8.7221-0.3819-71.007-1.6766-70.577 0.5166z" fill="#445057"/>
 </g>
</svg>
